<svg width="60" height="60" viewBox="0 0 60 60" fill="none" xmlns="http://www.w3.org/2000/svg">
<path d="M57.9374 22.6778C57.4374 18.6778 57.8473 17.7031 55.9313 14.6778C54.8543 12.9774 56.5703 15.5339 55.3379 13.9363C52.0117 9.62454 47.6745 5.88331 42.6637 3.83346C40.2402 2.84203 38.3642 1.67814 35.6803 1.44475C33.4043 1.24684 31.147 1.17778 28.8514 1.17778C26.5685 1.17778 23.7756 1.75361 21.6431 2.5829C20.3132 3.10009 18.7366 3.80405 17.4435 4.39674C15.8177 5.14191 14.4127 6.03825 13.1 7.30411C10.6743 9.64315 8.00132 11.7607 6.21486 14.6388C3.63359 18.7976 1.15643 23.0157 1.15643 27.9875C1.15643 30.8387 1.20835 33.6581 1.80278 36.4604C2.38387 39.1998 2.44349 40.8967 4.44349 44.3967C6.21486 47.8967 6.89073 48.344 8.44349 49.8967C9.58618 51.0394 12.0806 52.9532 13.4435 53.8967C15.9624 55.6406 17.9435 56.3967 21.4435 57.8967C26.4435 59.3967 28.7488 58.844 32.6452 58.844C34.9435 58.1778 34.4435 58.4537 37.1978 57.2C39.4435 56.1778 39.4435 55.9278 41.9435 54.6778C43.9435 53.6778 45.1077 52.881 46.4294 51.7481C47.5871 50.7558 48.891 50.0594 49.9703 48.98C51.0816 47.8687 52.1361 46.4339 53.0054 45.13C53.4675 44.4369 53.9564 43.3756 54.27 42.6008C54.615 41.7485 55.1733 40.8953 55.4784 40.0715C56.0142 38.6248 56.5969 36.9281 57.0522 35.4487C57.2867 34.6865 57.9374 32.4839 57.9374 31.683M57.9374 31.683C57.9374 31.5136 57.5011 32.0546 57.2134 32.4846M57.9374 31.683C57.7184 31.9019 57.4745 32.1738 57.2134 32.4846M57.9374 31.683C58.8464 30.774 58.5697 32.2776 58.5697 32.9616C58.5697 35.3802 58.1222 37.6266 57.6985 39.9872C57.207 42.7254 57.0522 43.6269 57.0522 46.3967M57.2134 32.4846C57.1168 32.6291 57.0369 32.761 56.9959 32.8492C56.6289 33.6398 55.8893 34.3511 55.2656 35.0338M57.2134 32.4846C56.6225 33.1882 55.9434 34.0915 55.2656 35.0338M55.2656 35.0338C55.1383 35.1732 55.0158 35.3113 54.9023 35.4487C53.8115 36.7692 51.77 39.19 50.9435 40.6778C47.9435 43.6778 52.9877 38.2003 55.2656 35.0338Z" stroke="#191919" stroke-width="2" stroke-linecap="round" stroke-linejoin="round"/>
</svg>
