<svg width="134" height="10" viewBox="0 0 134 10" fill="none" xmlns="http://www.w3.org/2000/svg">
<path d="M4.392 6H2.112L2.64 3.216H4.92L4.392 6ZM3.84 9H4.128L4.644 6.228H6.3V6H4.68L5.208 3.216H6.852V2.988H5.244L5.76 0.215999H5.472L4.956 2.988H2.676L3.192 0.215999H2.904L2.388 2.988H0.756V3.216H2.352L1.824 6H0.192V6.228H1.788L1.272 9H1.56L2.076 6.228H4.356L3.84 9ZM10.5715 7.476V2.016C10.5715 1.188 10.6675 0.852 11.0515 0.24V0.215999H9.11953V0.24C9.50353 0.852 9.59953 1.188 9.59953 2.016V7.884C9.59953 8.58 9.34753 8.94 8.97553 8.94C8.50753 8.94 8.06353 8.316 7.41553 7.164L7.31953 7.2L7.53553 8.916C7.95553 9.096 8.39953 9.18 8.81953 9.18C9.92353 9.18 10.5715 8.568 10.5715 7.476ZM15.6975 9.18C17.9775 9.18 18.7215 7.704 18.7215 5.988V2.22C18.7215 1.32 18.8775 0.948 19.5255 0.24L19.5015 0.215999H17.5935V0.24C18.3015 0.948 18.4575 1.32 18.4575 2.22V6C18.4575 7.524 17.8455 8.904 15.9135 8.904C14.4855 8.904 13.4055 8.172 13.4055 6.108V2.04C13.4055 1.2 13.5615 0.756 13.8855 0.24V0.215999H11.9415V0.24C12.3375 0.864 12.4215 1.2 12.4215 2.04V6.144C12.4215 8.304 13.9215 9.18 15.6975 9.18ZM25.0027 0.396C24.4747 0.192 23.7787 0.0359995 23.0587 0.0359995C21.5587 0.0359995 20.3827 0.707999 20.3827 2.208C20.3827 3.744 21.6307 4.284 22.8547 4.848C23.9467 5.34 24.9427 5.856 24.9427 7.164C24.9427 8.184 24.3187 8.94 23.0467 8.94C21.7987 8.94 20.9587 8.268 20.2387 6.744L20.1427 6.78L20.3827 8.724C21.1027 9 21.9427 9.18 22.7587 9.18C24.4027 9.18 25.8427 8.484 25.8427 6.72C25.8427 5.088 24.5947 4.488 23.3827 3.936C22.2427 3.408 21.1507 2.976 21.1507 1.764C21.1507 0.948 21.6667 0.275999 22.7707 0.275999C23.6707 0.275999 24.4987 0.744 25.1467 2.328L25.2427 2.292L25.0027 0.396ZM30.9962 8.976C30.6002 8.364 30.5162 8.028 30.5162 7.2V0.431999L32.1002 0.48C32.5442 0.491999 33.2522 1.704 33.7802 2.496L33.8762 2.46L33.4082 0.215999H26.6282L26.1722 2.46L26.2682 2.496C26.7842 1.704 27.4922 0.491999 27.9362 0.48L29.5322 0.431999V7.2C29.5322 8.016 29.4482 8.364 29.0522 8.976V9H30.9962V8.976ZM34.655 9H36.599V8.976C36.203 8.364 36.119 8.028 36.119 7.2V2.016C36.119 1.188 36.203 0.852 36.599 0.24V0.215999H34.655V0.24C35.051 0.852 35.135 1.2 35.135 2.016V7.2C35.135 8.016 35.051 8.364 34.655 8.976V9ZM45.5713 6.276L45.4753 6.24C44.7553 7.896 43.8433 8.94 42.0913 8.94C39.7993 8.94 38.7433 7.08 38.7433 4.596C38.7433 2.124 39.8233 0.275999 42.2353 0.275999C43.6033 0.275999 44.4553 0.912 45.4273 2.472L45.5233 2.448L45.2833 0.624C44.6713 0.372 43.5433 0.0359995 42.3313 0.0359995C39.4993 0.0359995 37.6153 2.04 37.6153 4.596C37.6153 7.164 39.3073 9.18 42.0673 9.18C43.6273 9.18 44.9953 8.532 45.3313 8.28L45.5713 6.276ZM53.1922 6.852L53.0962 6.816C52.4362 7.788 51.7162 8.688 50.8522 8.724L48.2362 8.808V4.704H49.7482C50.1922 4.704 50.5882 5.412 50.9002 5.772H50.9962V3.324H50.9002C50.5762 3.744 50.1922 4.464 49.7482 4.464H48.2362V0.408L50.7562 0.491999C51.2002 0.516 51.8362 1.464 52.4362 2.172L52.5322 2.136L52.0642 0.215999H46.7722V0.24C47.0842 0.84 47.2402 1.224 47.2402 1.896V7.32C47.2402 7.98 47.0842 8.376 46.7722 8.976V9H52.6642L53.1922 6.852ZM55.9818 8.976C55.5858 8.376 55.5018 8.04 55.5018 7.236V4.584H57.1338C57.5778 4.584 57.9738 5.292 58.2738 5.664H58.3818V3.216H58.2738C57.9618 3.624 57.5778 4.344 57.1338 4.344H55.5018V0.408L58.1898 0.48C58.6338 0.491999 59.2818 1.464 59.8578 2.172L59.9658 2.136L59.5458 0.215999H54.0378V0.24C54.4218 0.84 54.5178 1.176 54.5178 1.98V7.236C54.5178 8.028 54.4218 8.376 54.0378 8.976V9H55.9818V8.976ZM64.86 9.18C67.248 9.18 69.324 7.188 69.324 4.62C69.324 2.052 67.248 0.0359995 64.86 0.0359995C62.484 0.0359995 60.42 2.052 60.42 4.62C60.42 7.188 62.484 9.18 64.86 9.18ZM64.86 8.94C62.712 8.94 61.548 7.092 61.548 4.62C61.548 2.148 62.712 0.275999 64.86 0.275999C67.02 0.275999 68.196 2.148 68.196 4.62C68.196 7.104 67.02 8.94 64.86 8.94ZM73.2303 0.456C74.6943 0.456 75.1263 1.2 75.1263 2.292C75.1263 3.504 74.6823 4.572 73.2423 4.572H71.8143V0.468C72.4983 0.456 73.0023 0.456 73.2303 0.456ZM70.3503 9H72.2943V8.976C71.8983 8.364 71.8143 8.028 71.8143 7.2V4.812H73.4223L75.5943 9H77.2503V8.952C76.6623 8.676 76.3743 8.352 75.9063 7.44L74.4423 4.656C75.6063 4.284 76.1463 3.36 76.1463 2.292C76.1463 1.044 75.3543 0.215999 73.4223 0.215999H70.3503V0.24C70.7343 0.852 70.8303 1.2 70.8303 2.016V7.2C70.8303 8.016 70.7343 8.364 70.3503 8.976V9ZM80.8846 9C83.2246 9 84.2326 7.968 84.2326 6.564C84.2326 5.532 83.6806 4.548 82.1926 4.356C83.2846 4.032 83.8006 3.192 83.8006 2.208C83.8006 1.32 83.3806 0.155999 80.8606 0.167999C79.9846 0.167999 79.7926 0.215999 77.9206 0.215999V0.24C78.3046 0.852 78.4006 1.2 78.4006 2.016V7.2C78.4006 8.016 78.3046 8.364 77.9206 8.976V9H80.8846ZM79.3846 4.308V0.491999C79.7566 0.443999 80.2126 0.408 80.7406 0.408C82.1086 0.408 82.8406 1.056 82.8406 2.28C82.8406 3.252 82.4086 4.308 81.1246 4.308H79.3846ZM80.7886 8.76C80.2606 8.76 79.7686 8.712 79.3846 8.652V4.548H81.2326C82.5406 4.548 83.1646 5.4 83.1646 6.612C83.1646 7.908 82.4206 8.76 80.7886 8.76ZM88.0311 0.456C89.4951 0.456 89.9271 1.2 89.9271 2.292C89.9271 3.504 89.4831 4.572 88.0431 4.572H86.6151V0.468C87.2991 0.456 87.8031 0.456 88.0311 0.456ZM85.1511 9H87.0951V8.976C86.6991 8.364 86.6151 8.028 86.6151 7.2V4.812H88.2231L90.3951 9H92.0511V8.952C91.4631 8.676 91.1751 8.352 90.7071 7.44L89.2431 4.656C90.4071 4.284 90.9471 3.36 90.9471 2.292C90.9471 1.044 90.1551 0.215999 88.2231 0.215999H85.1511V0.24C85.5351 0.852 85.6311 1.2 85.6311 2.016V7.2C85.6311 8.016 85.5351 8.364 85.1511 8.976V9ZM99.1414 6.852L99.0454 6.816C98.3854 7.788 97.6654 8.688 96.8014 8.724L94.1854 8.808V4.704H95.6974C96.1414 4.704 96.5374 5.412 96.8494 5.772H96.9454V3.324H96.8494C96.5254 3.744 96.1414 4.464 95.6974 4.464H94.1854V0.408L96.7054 0.491999C97.1494 0.516 97.7854 1.464 98.3854 2.172L98.4814 2.136L98.0134 0.215999H92.7214V0.24C93.0334 0.84 93.1894 1.224 93.1894 1.896V7.32C93.1894 7.98 93.0334 8.376 92.7214 8.976V9H98.6134L99.1414 6.852ZM104.176 9.18C106.564 9.18 108.64 7.188 108.64 4.62C108.64 2.052 106.564 0.0359995 104.176 0.0359995C101.8 0.0359995 99.7364 2.052 99.7364 4.62C99.7364 7.188 101.8 9.18 104.176 9.18ZM104.176 8.94C102.028 8.94 100.864 7.092 100.864 4.62C100.864 2.148 102.028 0.275999 104.176 0.275999C106.336 0.275999 107.512 2.148 107.512 4.62C107.512 7.104 106.336 8.94 104.176 8.94ZM116.219 9.036L116.471 9V2.208C116.471 1.308 116.591 0.935999 117.131 0.24V0.215999H115.475V0.24C116.063 0.935999 116.195 1.308 116.207 2.208L116.243 7.488L110.651 0.215999H109.199V0.24C109.703 0.588 109.979 0.948 110.147 1.548V7.008C110.147 7.908 110.027 8.28 109.487 8.976V9H111.263V8.976C110.579 8.28 110.423 7.908 110.423 7.008L110.375 1.428L116.219 9.036ZM124.691 9.036L124.943 9V2.208C124.943 1.308 125.063 0.935999 125.603 0.24V0.215999H123.947V0.24C124.535 0.935999 124.667 1.308 124.679 2.208L124.715 7.488L119.123 0.215999H117.671V0.24C118.175 0.588 118.451 0.948 118.619 1.548V7.008C118.619 7.908 118.499 8.28 117.959 8.976V9H119.735V8.976C119.051 8.28 118.895 7.908 118.895 7.008L118.847 1.428L124.691 9.036ZM130.779 5.448H127.827L129.315 1.404L130.779 5.448ZM127.371 8.976C127.119 8.664 126.843 8.088 127.239 7.032L127.731 5.688H130.863L131.463 7.332C131.763 8.136 131.691 8.7 131.511 8.976V9H133.419V8.976C133.011 8.616 132.855 8.34 132.495 7.38L129.807 0.107999H129.519L126.867 7.26C126.555 8.1 126.411 8.472 125.907 8.976V9H127.371V8.976Z" fill="black"/>
</svg>
